<svg version="1.1" id="Layer_1" xmlns="http://www.w3.org/2000/svg" xmlns:xlink="http://www.w3.org/1999/xlink" x="0px" y="0px"
	 width="100%" viewBox="0 0 155 153" enable-background="new 0 0 155 153" xml:space="preserve">
<path fill="#FEFEFE" opacity="1.000000" stroke="none" 
	d="
M79.000000,154.000000 
	C52.666668,154.000000 26.833340,154.000000 1.000007,154.000000 
	C1.000005,103.000008 1.000005,52.000019 1.000002,1.000021 
	C52.666653,1.000014 104.333305,1.000014 155.999969,1.000007 
	C155.999969,51.999981 155.999969,102.999962 155.999985,153.999969 
	C130.500000,154.000000 105.000000,154.000000 79.000000,154.000000 
M55.500172,121.611954 
	C75.416245,121.611954 95.332314,121.611954 115.020447,121.611954 
	C115.350838,120.619072 115.541870,120.312622 115.542160,120.005989 
	C115.565331,95.189667 115.627792,70.373154 115.547035,45.557114 
	C115.525360,38.896103 112.355743,36.002117 105.513565,35.984226 
	C89.024467,35.941101 72.535172,35.960793 56.046001,35.984264 
	C54.786259,35.986057 53.526844,36.216984 52.326141,36.335587 
	C51.711414,49.730885 53.833313,51.966488 66.764236,51.966686 
	C77.372490,51.966850 87.980751,51.966724 98.611450,51.966724 
	C98.611450,69.111786 98.611450,85.786201 98.611450,102.372879 
	C95.645134,102.372879 93.049133,102.372879 89.950729,102.372879 
	C89.950729,88.369255 89.950729,74.642303 89.950729,60.797489 
	C80.451775,60.797489 71.465034,60.791183 62.478317,60.799328 
	C54.127647,60.806896 52.162258,62.752869 52.156685,71.018364 
	C52.149632,81.476776 52.154980,91.935196 52.154980,102.341629 
	C34.440159,103.885338 31.799109,106.897316 35.172527,121.611931 
	C41.560379,121.611931 48.030449,121.611931 55.500172,121.611954 
z"/>
<path fill="#060606" opacity="1.000000" stroke="none" 
	d="
M55.000343,121.611938 
	C48.030449,121.611931 41.560379,121.611931 35.172527,121.611931 
	C31.799109,106.897316 34.440159,103.885338 52.154980,102.341629 
	C52.154980,91.935196 52.149632,81.476776 52.156685,71.018364 
	C52.162258,62.752869 54.127647,60.806896 62.478317,60.799328 
	C71.465034,60.791183 80.451775,60.797489 89.950729,60.797489 
	C89.950729,74.642303 89.950729,88.369255 89.950729,102.372879 
	C93.049133,102.372879 95.645134,102.372879 98.611450,102.372879 
	C98.611450,85.786201 98.611450,69.111786 98.611450,51.966724 
	C87.980751,51.966724 77.372490,51.966850 66.764236,51.966686 
	C53.833313,51.966488 51.711414,49.730885 52.326141,36.335587 
	C53.526844,36.216984 54.786259,35.986057 56.046001,35.984264 
	C72.535172,35.960793 89.024467,35.941101 105.513565,35.984226 
	C112.355743,36.002117 115.525360,38.896103 115.547035,45.557114 
	C115.627792,70.373154 115.565331,95.189667 115.542160,120.005989 
	C115.541870,120.312622 115.350838,120.619072 115.020447,121.611954 
	C95.332314,121.611954 75.416245,121.611954 55.000343,121.611938 
M66.994286,98.786285 
	C68.446136,103.317444 71.892319,102.794220 75.488586,102.493698 
	C75.488586,92.575340 75.488586,83.049530 75.488586,73.414749 
	C72.575806,73.414749 69.991982,73.414749 66.929543,73.414749 
	C66.929543,81.721588 66.929543,89.813202 66.994286,98.786285 
z"/>
<path fill="#F1F1F1" opacity="1.000000" stroke="none" 
	d="
M66.961914,98.345551 
	C66.929543,89.813202 66.929543,81.721588 66.929543,73.414749 
	C69.991982,73.414749 72.575806,73.414749 75.488586,73.414749 
	C75.488586,83.049530 75.488586,92.575340 75.488586,102.493698 
	C71.892319,102.794220 68.446136,103.317444 66.961914,98.345551 
z"/>
</svg>